2025-12-19T03:56:41.1433653Z ##[group]Run Write-Host "--- Finding Thanthi TV Stream ---"
2025-12-19T03:56:41.1434621Z [36;1mWrite-Host "--- Finding Thanthi TV Stream ---"[0m
2025-12-19T03:56:41.1435354Z [36;1m$StreamUrl = python -m yt_dlp -f best -g "https://www.youtube.com/@ThanthiTV/live" --no-warnings[0m
2025-12-19T03:56:41.1435831Z [36;1m[0m
2025-12-19T03:56:41.1436048Z [36;1mif ($StreamUrl -match "^http") {[0m
2025-12-19T03:56:41.1436371Z [36;1m     Write-Host "✅ Found Stream!"[0m
2025-12-19T03:56:41.1436848Z [36;1m     ffmpeg -i "$StreamUrl" -vf "fps=0.2,scale=854:480,crop=854:120:0:360" -t 60 -q:v 5 screenshot_%04d.jpg[0m
2025-12-19T03:56:41.1437297Z [36;1m} else {[0m
2025-12-19T03:56:41.1437581Z [36;1m     Write-Error "❌ FAILED to get Stream URL."[0m
2025-12-19T03:56:41.1437901Z [36;1m     exit 1[0m
2025-12-19T03:56:41.1438086Z [36;1m}[0m
2025-12-19T03:56:41.1474338Z shell: C:\Windows\System32\WindowsPowerShell\v1.0\powershell.EXE -command ". '{0}'"
2025-12-19T03:56:41.1475119Z ##[endgroup]
2025-12-19T03:56:41.4050022Z --- Finding Thanthi TV Stream ---
2025-12-19T03:56:47.5717012Z âœ… Found Stream!
2025-12-19T03:56:47.6157104Z ffmpeg version 8.0.1-full_build-www.gyan.dev Copyright (c) 2000-2025 the FFmpeg developers
2025-12-19T03:56:47.6157683Z   built with gcc 15.2.0 (Rev8, Built by MSYS2 project)
2025-12-19T03:56:47.6162480Z   configuration: --enable-gpl --enable-version3 --enable-static --disable-w32threads --disable-autodetect --enable-fontconfig --enable-iconv --enable-gnutls --enable-lcms2 --enable-libxml2 --enable-gmp --enable-bzlib --enable-lzma --enable-libsnappy --enable-zlib --enable-librist --enable-libsrt --enable-libssh --enable-libzmq --enable-avisynth --enable-libbluray --enable-libcaca --enable-libdvdnav --enable-libdvdread --enable-sdl2 --enable-libaribb24 --enable-libaribcaption --enable-libdav1d --enable-libdavs2 --enable-libopenjpeg --enable-libquirc --enable-libuavs3d --enable-libxevd --enable-libzvbi --enable-liboapv --enable-libqrencode --enable-librav1e --enable-libsvtav1 --enable-libvvenc --enable-libwebp --enable-libx264 --enable-libx265 --enable-libxavs2 --enable-libxeve --enable-libxvid --enable-libaom --enable-libjxl --enable-libvpx --enable-mediafoundation --enable-libass --enable-frei0r --enable-libfreetype --enable-libfribidi --enable-libharfbuzz --enable-liblensfun --enable-libvidstab --enable-libvmaf --enable-libzimg --enable-amf --enable-cuda-llvm --enable-cuvid --enable-dxva2 --enable-d3d11va --enable-d3d12va --enable-ffnvcodec --enable-libvpl --enable-nvdec --enable-nvenc --enable-vaapi --enable-libshaderc --enable-vulkan --enable-libplacebo --enable-opencl --enable-libcdio --enable-openal --enable-libgme --enable-libmodplug --enable-libopenmpt --enable-libopencore-amrwb --enable-libmp3lame --enable-libshine --enable-libtheora --enable-libtwolame --enable-libvo-amrwbenc --enable-libcodec2 --enable-libilbc --enable-libgsm --enable-liblc3 --enable-libopencore-amrnb --enable-libopus --enable-libspeex --enable-libvorbis --enable-ladspa --enable-libbs2b --enable-libflite --enable-libmysofa --enable-librubberband --enable-libsoxr --enable-chromaprint --enable-whisper
2025-12-19T03:56:47.6168593Z   libavutil      60.  8.100 / 60.  8.100
2025-12-19T03:56:47.6168830Z   libavcodec     62. 11.100 / 62. 11.100
2025-12-19T03:56:47.6169061Z   libavformat    62.  3.100 / 62.  3.100
2025-12-19T03:56:47.6169284Z   libavdevice    62.  1.100 / 62.  1.100
2025-12-19T03:56:47.6169508Z   libavfilter    11.  4.100 / 11.  4.100
2025-12-19T03:56:47.6169739Z   libswscale      9.  1.100 /  9.  1.100
2025-12-19T03:56:47.6169974Z   libswresample   6.  1.100 /  6.  1.100
2025-12-19T03:56:48.4086983Z [hls @ 0000028249d46e40] Opening 'https://rr3---sn-ci5gup-jwcz.googlevideo.com/videoplayback/id/M37EXujFMRI.1/itag/96/source/yt_live_broadcast/expire/1766138204/ei/_MxEaa2kH4e7z7sPg6OlsAU/ip/2401:4900:64f2:5a81:94a4:a294:1f3e:3361/requiressl/yes/ratebypass/yes/live/1/sgoap/gir%3Dyes%3Bitag%3D140/sgovp/gir%3Dyes%3Bitag%3D137/rqh/1/hls_chunk_host/rr3---sn-ci5gup-jwcz.googlevideo.com/xpc/EgVo2aDSNQ%3D%3D/playlist_duration/30/manifest_duration/30/bui/AYUSA3DcaXdD1I0kNUbRLYS48aLwgj6_51sMTq58TL0QpzcfcNQn5abzYI7Po5nLsWWj4IhIIbcB8xWN/spc/wH4Qq2LhJCNK8LHmTBFe/vprv/1/playlist_type/DVR/cps/439/initcwndbps/678750/met/1766116605,/mh/dS/mm/44/mn/sn-ci5gup-jwcz/ms/lva/mv/m/mvi/3/pl/44/rms/lva,lva/keepalive/yes/fexp/51552689,51565116,51565682,51580968/mt/1766116103/sparams/expire,ei,ip,id,itag,source,requiressl,ratebypass,live,sgoap,sgovp,rqh,xpc,playlist_duration,manifest_duration,bui,spc,vprv,playlist_type/sig/AJfQdSswRQIhANb2TS42mM3gfjTpUergRz20aNaRH89TFbFy-5C42KsZAiBaFdK44w9yHETgvhhAioms_cMx2UUW4JkGMbxGk1gPYA%3D%3D/lsparams/hls_chunk_host,cps,initcwndbps,met,mh,mm,mn,ms,mv,mvi,pl,rms/lsig/APaTxxMwRQIhAOwod-GnKjFEk_pdeTrgk8Svn76Rh7qAUtAhi336nl6cAiBCPSyznhcEOgVqJV6bOCxcSh2Ip3d5eSKpwa3MKwBXdg%3D%3D/playlist/index.m3u8/sq/38/goap/lmt%3D1/govp/lmt%3D1/dur/5.000/file/seg.ts' for reading
2025-12-19T03:56:49.3924835Z     Last message repeated 1 times
2025-12-19T03:56:49.3928834Z Input #0, hls, from 'https://manifest.googlevideo.com/api/manifest/hls_playlist/expire/1766138204/ei/_MxEaa2kH4e7z7sPg6OlsAU/ip/2401:4900:64f2:5a81:94a4:a294:1f3e:3361/id/M37EXujFMRI.1/itag/96/source/yt_live_broadcast/requiressl/yes/ratebypass/yes/live/1/sgoap/gir%3Dyes%3Bitag%3D140/sgovp/gir%3Dyes%3Bitag%3D137/rqh/1/hls_chunk_host/rr3---sn-ci5gup-jwcz.googlevideo.com/xpc/EgVo2aDSNQ%3D%3D/playlist_duration/30/manifest_duration/30/bui/AYUSA3DcaXdD1I0kNUbRLYS48aLwgj6_51sMTq58TL0QpzcfcNQn5abzYI7Po5nLsWWj4IhIIbcB8xWN/spc/wH4Qq2LhJCNK8LHmTBFe/vprv/1/playlist_type/DVR/cps/439/initcwndbps/678750/met/1766116605,/mh/dS/mm/44/mn/sn-ci5gup-jwcz/ms/lva/mv/m/mvi/3/pl/44/rms/lva,lva/dover/11/pacing/0/keepalive/yes/fexp/51552689,51565116,51565682,51580968/mt/1766116103/sparams/expire,ei,ip,id,itag,source,requiressl,ratebypass,live,sgoap,sgovp,rqh,xpc,playlist_duration,manifest_duration,bui,spc,vprv,playlist_type/sig/AJfQdSswRQIhANb2TS42mM3gfjTpUergRz20aNaRH89TFbFy-5C42KsZAiBaFdK44w9yHETgvhhAioms_cMx2UUW4JkGMbxGk1gPYA%3D%3D/lsparams/hls_chunk_host,cps,initcwndbps,met,mh,mm,mn,ms,mv,mvi,pl,rms/lsig/APaTxxMwRQIhAOwod-GnKjFEk_pdeTrgk8Svn76Rh7qAUtAhi336nl6cAiBCPSyznhcEOgVqJV6bOCxcSh2Ip3d5eSKpwa3MKwBXdg%3D%3D/playlist/index.m3u8':
2025-12-19T03:56:49.3932512Z   Duration: N/A, start: 189.985667, bitrate: N/A
2025-12-19T03:56:49.3932733Z   Program 0 
2025-12-19T03:56:49.3932856Z     Metadata:
2025-12-19T03:56:49.3933017Z       variant_bitrate : 0
2025-12-19T03:56:49.3933287Z   Stream #0:0: Audio: aac (LC) ([15][0][0][0] / 0x000F), 44100 Hz, stereo, fltp, start 189.985667
2025-12-19T03:56:49.3933532Z     Metadata:
2025-12-19T03:56:49.3933664Z       variant_bitrate : 0
2025-12-19T03:56:49.3934031Z   Stream #0:1: Video: h264 (High) ([27][0][0][0] / 0x001B), yuv420p(tv, bt709), 1920x1080 [SAR 1:1 DAR 16:9], 30 fps, 30 tbr, 90k tbn, start 190.000000
2025-12-19T03:56:49.3934349Z     Metadata:
2025-12-19T03:56:49.3934486Z       variant_bitrate : 0
2025-12-19T03:56:49.3971740Z Stream mapping:
2025-12-19T03:56:49.3972456Z   Stream #0:1 -> #0:0 (h264 (native) -> mjpeg (native))
2025-12-19T03:56:49.3973256Z Press [q] to stop, [?] for help
2025-12-19T03:56:49.5550132Z Output #0, image2, to 'screenshot_%04d.jpg':
2025-12-19T03:56:49.5551846Z   Metadata:
2025-12-19T03:56:49.5552183Z     encoder         : Lavf62.3.100
2025-12-19T03:56:49.5552782Z   Stream #0:0: Video: mjpeg, yuv420p(pc, bt709, progressive), 854x120 [SAR 1280:1281 DAR 64:9], q=2-31, 200 kb/s, 0.20 fps, 0.20 tbn
2025-12-19T03:56:49.5553275Z     Metadata:
2025-12-19T03:56:49.5553517Z       encoder         : Lavc62.11.100 mjpeg
2025-12-19T03:56:49.5553821Z       variant_bitrate : 0
2025-12-19T03:56:49.5554075Z     Side data:
2025-12-19T03:56:49.5554432Z       cpb: bitrate max/min/avg: 0/0/200000 buffer size: 0 vbv_delay: N/A
2025-12-19T03:56:49.6183667Z [https @ 000002824a31a1c0] Opening 'https://rr3---sn-ci5gup-jwcz.googlevideo.com/videoplayback/id/M37EXujFMRI.1/itag/96/source/yt_live_broadcast/expire/1766138204/ei/_MxEaa2kH4e7z7sPg6OlsAU/ip/2401:4900:64f2:5a81:94a4:a294:1f3e:3361/requiressl/yes/ratebypass/yes/live/1/sgoap/gir%3Dyes%3Bitag%3D140/sgovp/gir%3Dyes%3Bitag%3D137/rqh/1/hls_chunk_host/rr3---sn-ci5gup-jwcz.googlevideo.com/xpc/EgVo2aDSNQ%3D%3D/playlist_duration/30/manifest_duration/30/bui/AYUSA3DcaXdD1I0kNUbRLYS48aLwgj6_51sMTq58TL0QpzcfcNQn5abzYI7Po5nLsWWj4IhIIbcB8xWN/spc/wH4Qq2LhJCNK8LHmTBFe/vprv/1/playlist_type/DVR/cps/439/initcwndbps/678750/met/1766116605,/mh/dS/mm/44/mn/sn-ci5gup-jwcz/ms/lva/mv/m/mvi/3/pl/44/rms/lva,lva/keepalive/yes/fexp/51552689,51565116,51565682,51580968/mt/1766116103/sparams/expire,ei,ip,id,itag,source,requiressl,ratebypass,live,sgoap,sgovp,rqh,xpc,playlist_duration,manifest_duration,bui,spc,vprv,playlist_type/sig/AJfQdSswRQIhANb2TS42mM3gfjTpUergRz20aNaRH89TFbFy-5C42KsZAiBaFdK44w9yHETgvhhAioms_cMx2UUW4JkGMbxGk1gPYA%3D%3D/lsparams/hls_chunk_host,cps,initcwndbps,met,mh,mm,mn,ms,mv,mvi,pl,rms/lsig/APaTxxMwRQIhAOwod-GnKjFEk_pdeTrgk8Svn76Rh7qAUtAhi336nl6cAiBCPSyznhcEOgVqJV6bOCxcSh2Ip3d5eSKpwa3MKwBXdg%3D%3D/playlist/index.m3u8/sq/40/goap/lmt%3D1/govp/lmt%3D1/dur/5.000/file/seg.ts' for reading
2025-12-19T03:56:50.4286820Z frame=    0 fps=0.0 q=0.0 size=       0KiB time=N/A bitrate=N/A speed=N/A elapsed=0:00:00.50    
2025-12-19T03:56:50.9461600Z frame=    1 fps=1.0 q=5.0 size=N/A time=00:00:05.00 bitrate=N/A speed=4.85x elapsed=0:00:01.03    
2025-12-19T03:56:51.4615101Z frame=    1 fps=0.6 q=5.0 size=N/A time=00:00:05.00 bitrate=N/A speed=3.23x elapsed=0:00:01.54    
2025-12-19T03:56:51.9753104Z frame=    2 fps=1.0 q=5.0 size=N/A time=00:00:10.00 bitrate=N/A speed=4.84x elapsed=0:00:02.06    
2025-12-19T03:56:52.4957685Z frame=    2 fps=0.8 q=5.0 size=N/A time=00:00:10.00 bitrate=N/A speed=3.88x elapsed=0:00:02.57    
2025-12-19T03:56:53.0113527Z frame=    2 fps=0.6 q=5.0 size=N/A time=00:00:10.00 bitrate=N/A speed=3.23x elapsed=0:00:03.09    
2025-12-19T03:56:53.5268779Z frame=    2 fps=0.6 q=5.0 size=N/A time=00:00:10.00 bitrate=N/A speed=2.77x elapsed=0:00:03.61    
2025-12-19T03:56:54.0454799Z frame=    2 fps=0.5 q=5.0 size=N/A time=00:00:10.00 bitrate=N/A speed=2.42x elapsed=0:00:04.12    
2025-12-19T03:56:54.1331490Z frame=    2 fps=0.4 q=5.0 size=N/A time=00:00:10.00 bitrate=N/A speed=2.15x elapsed=0:00:04.64    
2025-12-19T03:56:54.1344616Z [https @ 000002824a31a1c0] Opening 'https://rr3---sn-ci5gup-jwcz.googlevideo.com/videoplayback/id/M37EXujFMRI.1/itag/96/source/yt_live_broadcast/expire/1766138204/ei/_MxEaa2kH4e7z7sPg6OlsAU/ip/2401:4900:64f2:5a81:94a4:a294:1f3e:3361/requiressl/yes/ratebypass/yes/live/1/sgoap/gir%3Dyes%3Bitag%3D140/sgovp/gir%3Dyes%3Bitag%3D137/rqh/1/hls_chunk_host/rr3---sn-ci5gup-jwcz.googlevideo.com/xpc/EgVo2aDSNQ%3D%3D/playlist_duration/30/manifest_duration/30/bui/AYUSA3DcaXdD1I0kNUbRLYS48aLwgj6_51sMTq58TL0QpzcfcNQn5abzYI7Po5nLsWWj4IhIIbcB8xWN/spc/wH4Qq2LhJCNK8LHmTBFe/vprv/1/playlist_type/DVR/cps/439/initcwndbps/678750/met/1766116605,/mh/dS/mm/44/mn/sn-ci5gup-jwcz/ms/lva/mv/m/mvi/3/pl/44/rms/lva,lva/keepalive/yes/fexp/51552689,51565116,51565682,51580968/mt/1766116103/sparams/expire,ei,ip,id,itag,source,requiressl,ratebypass,live,sgoap,sgovp,rqh,xpc,playlist_duration,manifest_duration,bui,spc,vprv,playlist_type/sig/AJfQdSswRQIhANb2TS42mM3gfjTpUergRz20aNaRH89TFbFy-5C42KsZAiBaFdK44w9yHETgvhhAioms_cMx2UUW4JkGMbxGk1gPYA%3D%3D/lsparams/hls_chunk_host,cps,initcwndbps,met,mh,mm,mn,ms,mv,mvi,pl,rms/lsig/APaTxxMwRQIhAOwod-GnKjFEk_pdeTrgk8Svn76Rh7qAUtAhi336nl6cAiBCPSyznhcEOgVqJV6bOCxcSh2Ip3d5eSKpwa3MKwBXdg%3D%3D/playlist/index.m3u8/sq/41/goap/lmt%3D1/govp/lmt%3D1/dur/5.000/file/seg.ts' for reading
2025-12-19T03:56:55.0774570Z frame=    2 fps=0.4 q=5.0 size=N/A time=00:00:10.00 bitrate=N/A speed=1.94x elapsed=0:00:05.16    
2025-12-19T03:56:55.5936017Z frame=    3 fps=0.5 q=5.0 size=N/A time=00:00:15.00 bitrate=N/A speed=2.64x elapsed=0:00:05.68    
2025-12-19T03:56:56.1110909Z frame=    3 fps=0.5 q=5.0 size=N/A time=00:00:15.00 bitrate=N/A speed=2.42x elapsed=0:00:06.19    
2025-12-19T03:56:56.6315155Z frame=    3 fps=0.4 q=5.0 size=N/A time=00:00:15.00 bitrate=N/A speed=2.23x elapsed=0:00:06.71    
2025-12-19T03:56:57.1454711Z frame=    3 fps=0.4 q=5.0 size=N/A time=00:00:15.00 bitrate=N/A speed=2.07x elapsed=0:00:07.23    
2025-12-19T03:56:57.6596155Z frame=    3 fps=0.4 q=5.0 size=N/A time=00:00:15.00 bitrate=N/A speed=1.94x elapsed=0:00:07.74    
2025-12-19T03:56:58.1741703Z frame=    3 fps=0.4 q=5.0 size=N/A time=00:00:15.00 bitrate=N/A speed=1.82x elapsed=0:00:08.26    
2025-12-19T03:56:58.6948495Z frame=    3 fps=0.3 q=5.0 size=N/A time=00:00:15.00 bitrate=N/A speed=1.71x elapsed=0:00:08.77    
2025-12-19T03:56:59.1893014Z frame=    3 fps=0.3 q=5.0 size=N/A time=00:00:15.00 bitrate=N/A speed=1.61x elapsed=0:00:09.29    
2025-12-19T03:56:59.1908350Z [https @ 00000282500865c0] Opening 'https://manifest.googlevideo.com/api/manifest/hls_playlist/expire/1766138204/ei/_MxEaa2kH4e7z7sPg6OlsAU/ip/2401:4900:64f2:5a81:94a4:a294:1f3e:3361/id/M37EXujFMRI.1/itag/96/source/yt_live_broadcast/requiressl/yes/ratebypass/yes/live/1/sgoap/gir%3Dyes%3Bitag%3D140/sgovp/gir%3Dyes%3Bitag%3D137/rqh/1/hls_chunk_host/rr3---sn-ci5gup-jwcz.googlevideo.com/xpc/EgVo2aDSNQ%3D%3D/playlist_duration/30/manifest_duration/30/bui/AYUSA3DcaXdD1I0kNUbRLYS48aLwgj6_51sMTq58TL0QpzcfcNQn5abzYI7Po5nLsWWj4IhIIbcB8xWN/spc/wH4Qq2LhJCNK8LHmTBFe/vprv/1/playlist_type/DVR/cps/439/initcwndbps/678750/met/1766116605,/mh/dS/mm/44/mn/sn-ci5gup-jwcz/ms/lva/mv/m/mvi/3/pl/44/rms/lva,lva/dover/11/pacing/0/keepalive/yes/fexp/51552689,51565116,51565682,51580968/mt/1766116103/sparams/expire,ei,ip,id,itag,source,requiressl,ratebypass,live,sgoap,sgovp,rqh,xpc,playlist_duration,manifest_duration,bui,spc,vprv,playlist_type/sig/AJfQdSswRQIhANb2TS42mM3gfjTpUergRz20aNaRH89TFbFy-5C42KsZAiBaFdK44w9yHETgvhhAioms_cMx2UUW4JkGMbxGk1gPYA%3D%3D/lsparams/hls_chunk_host,cps,initcwndbps,met,mh,mm,mn,ms,mv,mvi,pl,rms/lsig/APaTxxMwRQIhAOwod-GnKjFEk_pdeTrgk8Svn76Rh7qAUtAhi336nl6cAiBCPSyznhcEOgVqJV6bOCxcSh2Ip3d5eSKpwa3MKwBXdg%3D%3D/playlist/index.m3u8' for reading
2025-12-19T03:56:59.3991917Z frame=    3 fps=0.3 q=5.0 size=N/A time=00:00:15.00 bitrate=N/A speed=1.53x elapsed=0:00:09.80    
2025-12-19T03:56:59.4005866Z [https @ 000002824a31a1c0] Opening 'https://rr3---sn-ci5gup-jwcz.googlevideo.com/videoplayback/id/M37EXujFMRI.1/itag/96/source/yt_live_broadcast/expire/1766138204/ei/_MxEaa2kH4e7z7sPg6OlsAU/ip/2401:4900:64f2:5a81:94a4:a294:1f3e:3361/requiressl/yes/ratebypass/yes/live/1/sgoap/gir%3Dyes%3Bitag%3D140/sgovp/gir%3Dyes%3Bitag%3D137/rqh/1/hls_chunk_host/rr3---sn-ci5gup-jwcz.googlevideo.com/xpc/EgVo2aDSNQ%3D%3D/playlist_duration/30/manifest_duration/30/bui/AYUSA3DcaXdD1I0kNUbRLYS48aLwgj6_51sMTq58TL0QpzcfcNQn5abzYI7Po5nLsWWj4IhIIbcB8xWN/spc/wH4Qq2LhJCNK8LHmTBFe/vprv/1/playlist_type/DVR/cps/439/initcwndbps/678750/met/1766116605,/mh/dS/mm/44/mn/sn-ci5gup-jwcz/ms/lva/mv/m/mvi/3/pl/44/rms/lva,lva/keepalive/yes/fexp/51552689,51565116,51565682,51580968/mt/1766116103/sparams/expire,ei,ip,id,itag,source,requiressl,ratebypass,live,sgoap,sgovp,rqh,xpc,playlist_duration,manifest_duration,bui,spc,vprv,playlist_type/sig/AJfQdSswRQIhANb2TS42mM3gfjTpUergRz20aNaRH89TFbFy-5C42KsZAiBaFdK44w9yHETgvhhAioms_cMx2UUW4JkGMbxGk1gPYA%3D%3D/lsparams/hls_chunk_host,cps,initcwndbps,met,mh,mm,mn,ms,mv,mvi,pl,rms/lsig/APaTxxMwRQIhAOwod-GnKjFEk_pdeTrgk8Svn76Rh7qAUtAhi336nl6cAiBCPSyznhcEOgVqJV6bOCxcSh2Ip3d5eSKpwa3MKwBXdg%3D%3D/playlist/index.m3u8/sq/42/goap/lmt%3D1/govp/lmt%3D1/dur/5.000/file/seg.ts' for reading
2025-12-19T03:57:00.2431152Z frame=    3 fps=0.3 q=5.0 size=N/A time=00:00:15.00 bitrate=N/A speed=1.45x elapsed=0:00:10.32    
2025-12-19T03:57:00.7448454Z frame=    3 fps=0.3 q=5.0 size=N/A time=00:00:15.00 bitrate=N/A speed=1.38x elapsed=0:00:10.84    
2025-12-19T03:57:01.2611837Z frame=    4 fps=0.4 q=5.0 size=N/A time=00:00:20.00 bitrate=N/A speed=1.76x elapsed=0:00:11.34    
2025-12-19T03:57:01.7793494Z frame=    4 fps=0.3 q=5.0 size=N/A time=00:00:20.00 bitrate=N/A speed=1.69x elapsed=0:00:11.86    
2025-12-19T03:57:02.3053955Z frame=    4 fps=0.3 q=5.0 size=N/A time=00:00:20.00 bitrate=N/A speed=1.62x elapsed=0:00:12.38    
2025-12-19T03:57:02.8154157Z frame=    4 fps=0.3 q=5.0 size=N/A time=00:00:20.00 bitrate=N/A speed=1.55x elapsed=0:00:12.90    
2025-12-19T03:57:03.3273911Z frame=    4 fps=0.3 q=5.0 size=N/A time=00:00:20.00 bitrate=N/A speed=1.49x elapsed=0:00:13.41    
2025-12-19T03:57:03.8438273Z frame=    4 fps=0.3 q=5.0 size=N/A time=00:00:20.00 bitrate=N/A speed=1.44x elapsed=0:00:13.92    
2025-12-19T03:57:04.3589131Z frame=    4 fps=0.3 q=5.0 size=N/A time=00:00:20.00 bitrate=N/A speed=1.38x elapsed=0:00:14.44    
2025-12-19T03:57:04.4918348Z frame=    4 fps=0.3 q=5.0 size=N/A time=00:00:20.00 bitrate=N/A speed=1.34x elapsed=0:00:14.96    
2025-12-19T03:57:04.4931264Z [https @ 00000282500865c0] Opening 'https://manifest.googlevideo.com/api/manifest/hls_playlist/expire/1766138204/ei/_MxEaa2kH4e7z7sPg6OlsAU/ip/2401:4900:64f2:5a81:94a4:a294:1f3e:3361/id/M37EXujFMRI.1/itag/96/source/yt_live_broadcast/requiressl/yes/ratebypass/yes/live/1/sgoap/gir%3Dyes%3Bitag%3D140/sgovp/gir%3Dyes%3Bitag%3D137/rqh/1/hls_chunk_host/rr3---sn-ci5gup-jwcz.googlevideo.com/xpc/EgVo2aDSNQ%3D%3D/playlist_duration/30/manifest_duration/30/bui/AYUSA3DcaXdD1I0kNUbRLYS48aLwgj6_51sMTq58TL0QpzcfcNQn5abzYI7Po5nLsWWj4IhIIbcB8xWN/spc/wH4Qq2LhJCNK8LHmTBFe/vprv/1/playlist_type/DVR/cps/439/initcwndbps/678750/met/1766116605,/mh/dS/mm/44/mn/sn-ci5gup-jwcz/ms/lva/mv/m/mvi/3/pl/44/rms/lva,lva/dover/11/pacing/0/keepalive/yes/fexp/51552689,51565116,51565682,51580968/mt/1766116103/sparams/expire,ei,ip,id,itag,source,requiressl,ratebypass,live,sgoap,sgovp,rqh,xpc,playlist_duration,manifest_duration,bui,spc,vprv,playlist_type/sig/AJfQdSswRQIhANb2TS42mM3gfjTpUergRz20aNaRH89TFbFy-5C42KsZAiBaFdK44w9yHETgvhhAioms_cMx2UUW4JkGMbxGk1gPYA%3D%3D/lsparams/hls_chunk_host,cps,initcwndbps,met,mh,mm,mn,ms,mv,mvi,pl,rms/lsig/APaTxxMwRQIhAOwod-GnKjFEk_pdeTrgk8Svn76Rh7qAUtAhi336nl6cAiBCPSyznhcEOgVqJV6bOCxcSh2Ip3d5eSKpwa3MKwBXdg%3D%3D/playlist/index.m3u8' for reading
2025-12-19T03:57:04.7069653Z [https @ 000002824a31a1c0] Opening 'https://rr3---sn-ci5gup-jwcz.googlevideo.com/videoplayback/id/M37EXujFMRI.1/itag/96/source/yt_live_broadcast/expire/1766138204/ei/_MxEaa2kH4e7z7sPg6OlsAU/ip/2401:4900:64f2:5a81:94a4:a294:1f3e:3361/requiressl/yes/ratebypass/yes/live/1/sgoap/gir%3Dyes%3Bitag%3D140/sgovp/gir%3Dyes%3Bitag%3D137/rqh/1/hls_chunk_host/rr3---sn-ci5gup-jwcz.googlevideo.com/xpc/EgVo2aDSNQ%3D%3D/playlist_duration/30/manifest_duration/30/bui/AYUSA3DcaXdD1I0kNUbRLYS48aLwgj6_51sMTq58TL0QpzcfcNQn5abzYI7Po5nLsWWj4IhIIbcB8xWN/spc/wH4Qq2LhJCNK8LHmTBFe/vprv/1/playlist_type/DVR/cps/439/initcwndbps/678750/met/1766116605,/mh/dS/mm/44/mn/sn-ci5gup-jwcz/ms/lva/mv/m/mvi/3/pl/44/rms/lva,lva/keepalive/yes/fexp/51552689,51565116,51565682,51580968/mt/1766116103/sparams/expire,ei,ip,id,itag,source,requiressl,ratebypass,live,sgoap,sgovp,rqh,xpc,playlist_duration,manifest_duration,bui,spc,vprv,playlist_type/sig/AJfQdSswRQIhANb2TS42mM3gfjTpUergRz20aNaRH89TFbFy-5C42KsZAiBaFdK44w9yHETgvhhAioms_cMx2UUW4JkGMbxGk1gPYA%3D%3D/lsparams/hls_chunk_host,cps,initcwndbps,met,mh,mm,mn,ms,mv,mvi,pl,rms/lsig/APaTxxMwRQIhAOwod-GnKjFEk_pdeTrgk8Svn76Rh7qAUtAhi336nl6cAiBCPSyznhcEOgVqJV6bOCxcSh2Ip3d5eSKpwa3MKwBXdg%3D%3D/playlist/index.m3u8/sq/43/goap/lmt%3D1/govp/lmt%3D1/dur/5.000/file/seg.ts' for reading
2025-12-19T03:57:05.3939405Z frame=    4 fps=0.3 q=5.0 size=N/A time=00:00:20.00 bitrate=N/A speed=1.29x elapsed=0:00:15.47    
2025-12-19T03:57:05.9046418Z frame=    5 fps=0.3 q=5.0 size=N/A time=00:00:25.00 bitrate=N/A speed=1.56x elapsed=0:00:15.99    
2025-12-19T03:57:06.4262436Z frame=    5 fps=0.3 q=5.0 size=N/A time=00:00:25.00 bitrate=N/A speed=1.51x elapsed=0:00:16.50    
2025-12-19T03:57:06.9377803Z frame=    5 fps=0.3 q=5.0 size=N/A time=00:00:25.00 bitrate=N/A speed=1.47x elapsed=0:00:17.02    
2025-12-19T03:57:07.4594200Z frame=    5 fps=0.3 q=5.0 size=N/A time=00:00:25.00 bitrate=N/A speed=1.43x elapsed=0:00:17.54    
2025-12-19T03:57:07.9718893Z frame=    5 fps=0.3 q=5.0 size=N/A time=00:00:25.00 bitrate=N/A speed=1.38x elapsed=0:00:18.06    
2025-12-19T03:57:08.4935632Z frame=    5 fps=0.3 q=5.0 size=N/A time=00:00:25.00 bitrate=N/A speed=1.35x elapsed=0:00:18.57    
2025-12-19T03:57:09.0115302Z frame=    5 fps=0.3 q=5.0 size=N/A time=00:00:25.00 bitrate=N/A speed=1.31x elapsed=0:00:19.09    
2025-12-19T03:57:09.5280265Z frame=    5 fps=0.3 q=5.0 size=N/A time=00:00:25.00 bitrate=N/A speed=1.27x elapsed=0:00:19.61    
2025-12-19T03:57:09.7564198Z frame=    5 fps=0.2 q=5.0 size=N/A time=00:00:25.00 bitrate=N/A speed=1.24x elapsed=0:00:20.13    
2025-12-19T03:57:09.7578083Z [https @ 00000282500865c0] Opening 'https://manifest.googlevideo.com/api/manifest/hls_playlist/expire/1766138204/ei/_MxEaa2kH4e7z7sPg6OlsAU/ip/2401:4900:64f2:5a81:94a4:a294:1f3e:3361/id/M37EXujFMRI.1/itag/96/source/yt_live_broadcast/requiressl/yes/ratebypass/yes/live/1/sgoap/gir%3Dyes%3Bitag%3D140/sgovp/gir%3Dyes%3Bitag%3D137/rqh/1/hls_chunk_host/rr3---sn-ci5gup-jwcz.googlevideo.com/xpc/EgVo2aDSNQ%3D%3D/playlist_duration/30/manifest_duration/30/bui/AYUSA3DcaXdD1I0kNUbRLYS48aLwgj6_51sMTq58TL0QpzcfcNQn5abzYI7Po5nLsWWj4IhIIbcB8xWN/spc/wH4Qq2LhJCNK8LHmTBFe/vprv/1/playlist_type/DVR/cps/439/initcwndbps/678750/met/1766116605,/mh/dS/mm/44/mn/sn-ci5gup-jwcz/ms/lva/mv/m/mvi/3/pl/44/rms/lva,lva/dover/11/pacing/0/keepalive/yes/fexp/51552689,51565116,51565682,51580968/mt/1766116103/sparams/expire,ei,ip,id,itag,source,requiressl,ratebypass,live,sgoap,sgovp,rqh,xpc,playlist_duration,manifest_duration,bui,spc,vprv,playlist_type/sig/AJfQdSswRQIhANb2TS42mM3gfjTpUergRz20aNaRH89TFbFy-5C42KsZAiBaFdK44w9yHETgvhhAioms_cMx2UUW4JkGMbxGk1gPYA%3D%3D/lsparams/hls_chunk_host,cps,initcwndbps,met,mh,mm,mn,ms,mv,mvi,pl,rms/lsig/APaTxxMwRQIhAOwod-GnKjFEk_pdeTrgk8Svn76Rh7qAUtAhi336nl6cAiBCPSyznhcEOgVqJV6bOCxcSh2Ip3d5eSKpwa3MKwBXdg%3D%3D/playlist/index.m3u8' for reading
2025-12-19T03:57:09.9605443Z [https @ 000002824a31a1c0] Opening 'https://rr3---sn-ci5gup-jwcz.googlevideo.com/videoplayback/id/M37EXujFMRI.1/itag/96/source/yt_live_broadcast/expire/1766138204/ei/_MxEaa2kH4e7z7sPg6OlsAU/ip/2401:4900:64f2:5a81:94a4:a294:1f3e:3361/requiressl/yes/ratebypass/yes/live/1/sgoap/gir%3Dyes%3Bitag%3D140/sgovp/gir%3Dyes%3Bitag%3D137/rqh/1/hls_chunk_host/rr3---sn-ci5gup-jwcz.googlevideo.com/xpc/EgVo2aDSNQ%3D%3D/playlist_duration/30/manifest_duration/30/bui/AYUSA3DcaXdD1I0kNUbRLYS48aLwgj6_51sMTq58TL0QpzcfcNQn5abzYI7Po5nLsWWj4IhIIbcB8xWN/spc/wH4Qq2LhJCNK8LHmTBFe/vprv/1/playlist_type/DVR/cps/439/initcwndbps/678750/met/1766116605,/mh/dS/mm/44/mn/sn-ci5gup-jwcz/ms/lva/mv/m/mvi/3/pl/44/rms/lva,lva/keepalive/yes/fexp/51552689,51565116,51565682,51580968/mt/1766116103/sparams/expire,ei,ip,id,itag,source,requiressl,ratebypass,live,sgoap,sgovp,rqh,xpc,playlist_duration,manifest_duration,bui,spc,vprv,playlist_type/sig/AJfQdSswRQIhANb2TS42mM3gfjTpUergRz20aNaRH89TFbFy-5C42KsZAiBaFdK44w9yHETgvhhAioms_cMx2UUW4JkGMbxGk1gPYA%3D%3D/lsparams/hls_chunk_host,cps,initcwndbps,met,mh,mm,mn,ms,mv,mvi,pl,rms/lsig/APaTxxMwRQIhAOwod-GnKjFEk_pdeTrgk8Svn76Rh7qAUtAhi336nl6cAiBCPSyznhcEOgVqJV6bOCxcSh2Ip3d5eSKpwa3MKwBXdg%3D%3D/playlist/index.m3u8/sq/44/goap/lmt%3D1/govp/lmt%3D1/dur/5.000/file/seg.ts' for reading
2025-12-19T03:57:10.5578779Z frame=    5 fps=0.2 q=5.0 size=N/A time=00:00:25.00 bitrate=N/A speed=1.21x elapsed=0:00:20.65    
2025-12-19T03:57:11.0739590Z frame=    6 fps=0.3 q=5.0 size=N/A time=00:00:30.00 bitrate=N/A speed=1.42x elapsed=0:00:21.16    
2025-12-19T03:57:11.5914736Z frame=    6 fps=0.3 q=5.0 size=N/A time=00:00:30.00 bitrate=N/A speed=1.38x elapsed=0:00:21.67    
2025-12-19T03:57:12.1071585Z frame=    6 fps=0.3 q=5.0 size=N/A time=00:00:30.00 bitrate=N/A speed=1.35x elapsed=0:00:22.19    
2025-12-19T03:57:12.6235559Z frame=    6 fps=0.3 q=5.0 size=N/A time=00:00:30.00 bitrate=N/A speed=1.32x elapsed=0:00:22.70    
2025-12-19T03:57:13.1391731Z frame=    6 fps=0.3 q=5.0 size=N/A time=00:00:30.00 bitrate=N/A speed=1.29x elapsed=0:00:23.22    
2025-12-19T03:57:13.6557759Z frame=    6 fps=0.3 q=5.0 size=N/A time=00:00:30.00 bitrate=N/A speed=1.26x elapsed=0:00:23.74    
2025-12-19T03:57:14.1754307Z frame=    6 fps=0.2 q=5.0 size=N/A time=00:00:30.00 bitrate=N/A speed=1.24x elapsed=0:00:24.25    
2025-12-19T03:57:14.6924051Z frame=    6 fps=0.2 q=5.0 size=N/A time=00:00:30.00 bitrate=N/A speed=1.21x elapsed=0:00:24.77    
2025-12-19T03:57:15.0228383Z frame=    6 fps=0.2 q=5.0 size=N/A time=00:00:30.00 bitrate=N/A speed=1.19x elapsed=0:00:25.29    
2025-12-19T03:57:15.0253301Z [https @ 00000282500865c0] Opening 'https://manifest.googlevideo.com/api/manifest/hls_playlist/expire/1766138204/ei/_MxEaa2kH4e7z7sPg6OlsAU/ip/2401:4900:64f2:5a81:94a4:a294:1f3e:3361/id/M37EXujFMRI.1/itag/96/source/yt_live_broadcast/requiressl/yes/ratebypass/yes/live/1/sgoap/gir%3Dyes%3Bitag%3D140/sgovp/gir%3Dyes%3Bitag%3D137/rqh/1/hls_chunk_host/rr3---sn-ci5gup-jwcz.googlevideo.com/xpc/EgVo2aDSNQ%3D%3D/playlist_duration/30/manifest_duration/30/bui/AYUSA3DcaXdD1I0kNUbRLYS48aLwgj6_51sMTq58TL0QpzcfcNQn5abzYI7Po5nLsWWj4IhIIbcB8xWN/spc/wH4Qq2LhJCNK8LHmTBFe/vprv/1/playlist_type/DVR/cps/439/initcwndbps/678750/met/1766116605,/mh/dS/mm/44/mn/sn-ci5gup-jwcz/ms/lva/mv/m/mvi/3/pl/44/rms/lva,lva/dover/11/pacing/0/keepalive/yes/fexp/51552689,51565116,51565682,51580968/mt/1766116103/sparams/expire,ei,ip,id,itag,source,requiressl,ratebypass,live,sgoap,sgovp,rqh,xpc,playlist_duration,manifest_duration,bui,spc,vprv,playlist_type/sig/AJfQdSswRQIhANb2TS42mM3gfjTpUergRz20aNaRH89TFbFy-5C42KsZAiBaFdK44w9yHETgvhhAioms_cMx2UUW4JkGMbxGk1gPYA%3D%3D/lsparams/hls_chunk_host,cps,initcwndbps,met,mh,mm,mn,ms,mv,mvi,pl,rms/lsig/APaTxxMwRQIhAOwod-GnKjFEk_pdeTrgk8Svn76Rh7qAUtAhi336nl6cAiBCPSyznhcEOgVqJV6bOCxcSh2Ip3d5eSKpwa3MKwBXdg%3D%3D/playlist/index.m3u8' for reading
2025-12-19T03:57:15.2278161Z frame=    6 fps=0.2 q=5.0 size=N/A time=00:00:30.00 bitrate=N/A speed=1.16x elapsed=0:00:25.81    
2025-12-19T03:57:15.2294314Z [https @ 000002824a31a1c0] Opening 'https://rr3---sn-ci5gup-jwcz.googlevideo.com/videoplayback/id/M37EXujFMRI.1/itag/96/source/yt_live_broadcast/expire/1766138204/ei/_MxEaa2kH4e7z7sPg6OlsAU/ip/2401:4900:64f2:5a81:94a4:a294:1f3e:3361/requiressl/yes/ratebypass/yes/live/1/sgoap/gir%3Dyes%3Bitag%3D140/sgovp/gir%3Dyes%3Bitag%3D137/rqh/1/hls_chunk_host/rr3---sn-ci5gup-jwcz.googlevideo.com/xpc/EgVo2aDSNQ%3D%3D/playlist_duration/30/manifest_duration/30/bui/AYUSA3DcaXdD1I0kNUbRLYS48aLwgj6_51sMTq58TL0QpzcfcNQn5abzYI7Po5nLsWWj4IhIIbcB8xWN/spc/wH4Qq2LhJCNK8LHmTBFe/vprv/1/playlist_type/DVR/cps/439/initcwndbps/678750/met/1766116605,/mh/dS/mm/44/mn/sn-ci5gup-jwcz/ms/lva/mv/m/mvi/3/pl/44/rms/lva,lva/keepalive/yes/fexp/51552689,51565116,51565682,51580968/mt/1766116103/sparams/expire,ei,ip,id,itag,source,requiressl,ratebypass,live,sgoap,sgovp,rqh,xpc,playlist_duration,manifest_duration,bui,spc,vprv,playlist_type/sig/AJfQdSswRQIhANb2TS42mM3gfjTpUergRz20aNaRH89TFbFy-5C42KsZAiBaFdK44w9yHETgvhhAioms_cMx2UUW4JkGMbxGk1gPYA%3D%3D/lsparams/hls_chunk_host,cps,initcwndbps,met,mh,mm,mn,ms,mv,mvi,pl,rms/lsig/APaTxxMwRQIhAOwod-GnKjFEk_pdeTrgk8Svn76Rh7qAUtAhi336nl6cAiBCPSyznhcEOgVqJV6bOCxcSh2Ip3d5eSKpwa3MKwBXdg%3D%3D/playlist/index.m3u8/sq/45/goap/lmt%3D1/govp/lmt%3D1/dur/5.000/file/seg.ts' for reading
2025-12-19T03:57:16.2416244Z frame=    6 fps=0.2 q=5.0 size=N/A time=00:00:30.00 bitrate=N/A speed=1.14x elapsed=0:00:26.32    
2025-12-19T03:57:16.7465761Z frame=    7 fps=0.3 q=5.0 size=N/A time=00:00:35.00 bitrate=N/A speed= 1.3x elapsed=0:00:26.84    
2025-12-19T03:57:17.2648567Z frame=    7 fps=0.3 q=5.0 size=N/A time=00:00:35.00 bitrate=N/A speed=1.28x elapsed=0:00:27.34    
2025-12-19T03:57:17.7822941Z frame=    7 fps=0.3 q=5.0 size=N/A time=00:00:35.00 bitrate=N/A speed=1.26x elapsed=0:00:27.86    
2025-12-19T03:57:18.2950616Z frame=    7 fps=0.2 q=5.0 size=N/A time=00:00:35.00 bitrate=N/A speed=1.23x elapsed=0:00:28.38    
2025-12-19T03:57:18.8096148Z frame=    7 fps=0.2 q=5.0 size=N/A time=00:00:35.00 bitrate=N/A speed=1.21x elapsed=0:00:28.89    
2025-12-19T03:57:19.3258411Z frame=    7 fps=0.2 q=5.0 size=N/A time=00:00:35.00 bitrate=N/A speed=1.19x elapsed=0:00:29.41    
2025-12-19T03:57:19.8414169Z frame=    7 fps=0.2 q=5.0 size=N/A time=00:00:35.00 bitrate=N/A speed=1.17x elapsed=0:00:29.92    
2025-12-19T03:57:20.2943700Z frame=    7 fps=0.2 q=5.0 size=N/A time=00:00:35.00 bitrate=N/A speed=1.15x elapsed=0:00:30.44    
2025-12-19T03:57:20.2957385Z [https @ 00000282500865c0] Opening 'https://manifest.googlevideo.com/api/manifest/hls_playlist/expire/1766138204/ei/_MxEaa2kH4e7z7sPg6OlsAU/ip/2401:4900:64f2:5a81:94a4:a294:1f3e:3361/id/M37EXujFMRI.1/itag/96/source/yt_live_broadcast/requiressl/yes/ratebypass/yes/live/1/sgoap/gir%3Dyes%3Bitag%3D140/sgovp/gir%3Dyes%3Bitag%3D137/rqh/1/hls_chunk_host/rr3---sn-ci5gup-jwcz.googlevideo.com/xpc/EgVo2aDSNQ%3D%3D/playlist_duration/30/manifest_duration/30/bui/AYUSA3DcaXdD1I0kNUbRLYS48aLwgj6_51sMTq58TL0QpzcfcNQn5abzYI7Po5nLsWWj4IhIIbcB8xWN/spc/wH4Qq2LhJCNK8LHmTBFe/vprv/1/playlist_type/DVR/cps/439/initcwndbps/678750/met/1766116605,/mh/dS/mm/44/mn/sn-ci5gup-jwcz/ms/lva/mv/m/mvi/3/pl/44/rms/lva,lva/dover/11/pacing/0/keepalive/yes/fexp/51552689,51565116,51565682,51580968/mt/1766116103/sparams/expire,ei,ip,id,itag,source,requiressl,ratebypass,live,sgoap,sgovp,rqh,xpc,playlist_duration,manifest_duration,bui,spc,vprv,playlist_type/sig/AJfQdSswRQIhANb2TS42mM3gfjTpUergRz20aNaRH89TFbFy-5C42KsZAiBaFdK44w9yHETgvhhAioms_cMx2UUW4JkGMbxGk1gPYA%3D%3D/lsparams/hls_chunk_host,cps,initcwndbps,met,mh,mm,mn,ms,mv,mvi,pl,rms/lsig/APaTxxMwRQIhAOwod-GnKjFEk_pdeTrgk8Svn76Rh7qAUtAhi336nl6cAiBCPSyznhcEOgVqJV6bOCxcSh2Ip3d5eSKpwa3MKwBXdg%3D%3D/playlist/index.m3u8' for reading
2025-12-19T03:57:20.5024937Z frame=    7 fps=0.2 q=5.0 size=N/A time=00:00:35.00 bitrate=N/A speed=1.13x elapsed=0:00:30.95    
2025-12-19T03:57:20.5038398Z [https @ 000002824a31a1c0] Opening 'https://rr3---sn-ci5gup-jwcz.googlevideo.com/videoplayback/id/M37EXujFMRI.1/itag/96/source/yt_live_broadcast/expire/1766138204/ei/_MxEaa2kH4e7z7sPg6OlsAU/ip/2401:4900:64f2:5a81:94a4:a294:1f3e:3361/requiressl/yes/ratebypass/yes/live/1/sgoap/gir%3Dyes%3Bitag%3D140/sgovp/gir%3Dyes%3Bitag%3D137/rqh/1/hls_chunk_host/rr3---sn-ci5gup-jwcz.googlevideo.com/xpc/EgVo2aDSNQ%3D%3D/playlist_duration/30/manifest_duration/30/bui/AYUSA3DcaXdD1I0kNUbRLYS48aLwgj6_51sMTq58TL0QpzcfcNQn5abzYI7Po5nLsWWj4IhIIbcB8xWN/spc/wH4Qq2LhJCNK8LHmTBFe/vprv/1/playlist_type/DVR/cps/439/initcwndbps/678750/met/1766116605,/mh/dS/mm/44/mn/sn-ci5gup-jwcz/ms/lva/mv/m/mvi/3/pl/44/rms/lva,lva/keepalive/yes/fexp/51552689,51565116,51565682,51580968/mt/1766116103/sparams/expire,ei,ip,id,itag,source,requiressl,ratebypass,live,sgoap,sgovp,rqh,xpc,playlist_duration,manifest_duration,bui,spc,vprv,playlist_type/sig/AJfQdSswRQIhANb2TS42mM3gfjTpUergRz20aNaRH89TFbFy-5C42KsZAiBaFdK44w9yHETgvhhAioms_cMx2UUW4JkGMbxGk1gPYA%3D%3D/lsparams/hls_chunk_host,cps,initcwndbps,met,mh,mm,mn,ms,mv,mvi,pl,rms/lsig/APaTxxMwRQIhAOwod-GnKjFEk_pdeTrgk8Svn76Rh7qAUtAhi336nl6cAiBCPSyznhcEOgVqJV6bOCxcSh2Ip3d5eSKpwa3MKwBXdg%3D%3D/playlist/index.m3u8/sq/46/goap/lmt%3D1/govp/lmt%3D1/dur/5.000/file/seg.ts' for reading
2025-12-19T03:57:21.3883297Z frame=    7 fps=0.2 q=5.0 size=N/A time=00:00:35.00 bitrate=N/A speed=1.11x elapsed=0:00:31.47    
2025-12-19T03:57:21.9020476Z frame=    8 fps=0.3 q=5.0 size=N/A time=00:00:40.00 bitrate=N/A speed=1.25x elapsed=0:00:31.99    
2025-12-19T03:57:22.4168423Z frame=    8 fps=0.2 q=5.0 size=N/A time=00:00:40.00 bitrate=N/A speed=1.23x elapsed=0:00:32.50    
2025-12-19T03:57:22.9385928Z frame=    8 fps=0.2 q=5.0 size=N/A time=00:00:40.00 bitrate=N/A speed=1.21x elapsed=0:00:33.01    
2025-12-19T03:57:23.4570152Z frame=    8 fps=0.2 q=5.0 size=N/A time=00:00:40.00 bitrate=N/A speed=1.19x elapsed=0:00:33.54    
2025-12-19T03:57:23.9752865Z frame=    8 fps=0.2 q=5.0 size=N/A time=00:00:40.00 bitrate=N/A speed=1.17x elapsed=0:00:34.05    
2025-12-19T03:57:24.4834782Z frame=    8 fps=0.2 q=5.0 size=N/A time=00:00:40.00 bitrate=N/A speed=1.16x elapsed=0:00:34.57    
2025-12-19T03:57:24.9990397Z frame=    8 fps=0.2 q=5.0 size=N/A time=00:00:40.00 bitrate=N/A speed=1.14x elapsed=0:00:35.08    
2025-12-19T03:57:25.5148909Z frame=    8 fps=0.2 q=5.0 size=N/A time=00:00:40.00 bitrate=N/A speed=1.12x elapsed=0:00:35.60    
2025-12-19T03:57:25.5616751Z frame=    8 fps=0.2 q=5.0 size=N/A time=00:00:40.00 bitrate=N/A speed=1.11x elapsed=0:00:36.11    
2025-12-19T03:57:25.5630481Z [https @ 00000282500865c0] Opening 'https://manifest.googlevideo.com/api/manifest/hls_playlist/expire/1766138204/ei/_MxEaa2kH4e7z7sPg6OlsAU/ip/2401:4900:64f2:5a81:94a4:a294:1f3e:3361/id/M37EXujFMRI.1/itag/96/source/yt_live_broadcast/requiressl/yes/ratebypass/yes/live/1/sgoap/gir%3Dyes%3Bitag%3D140/sgovp/gir%3Dyes%3Bitag%3D137/rqh/1/hls_chunk_host/rr3---sn-ci5gup-jwcz.googlevideo.com/xpc/EgVo2aDSNQ%3D%3D/playlist_duration/30/manifest_duration/30/bui/AYUSA3DcaXdD1I0kNUbRLYS48aLwgj6_51sMTq58TL0QpzcfcNQn5abzYI7Po5nLsWWj4IhIIbcB8xWN/spc/wH4Qq2LhJCNK8LHmTBFe/vprv/1/playlist_type/DVR/cps/439/initcwndbps/678750/met/1766116605,/mh/dS/mm/44/mn/sn-ci5gup-jwcz/ms/lva/mv/m/mvi/3/pl/44/rms/lva,lva/dover/11/pacing/0/keepalive/yes/fexp/51552689,51565116,51565682,51580968/mt/1766116103/sparams/expire,ei,ip,id,itag,source,requiressl,ratebypass,live,sgoap,sgovp,rqh,xpc,playlist_duration,manifest_duration,bui,spc,vprv,playlist_type/sig/AJfQdSswRQIhANb2TS42mM3gfjTpUergRz20aNaRH89TFbFy-5C42KsZAiBaFdK44w9yHETgvhhAioms_cMx2UUW4JkGMbxGk1gPYA%3D%3D/lsparams/hls_chunk_host,cps,initcwndbps,met,mh,mm,mn,ms,mv,mvi,pl,rms/lsig/APaTxxMwRQIhAOwod-GnKjFEk_pdeTrgk8Svn76Rh7qAUtAhi336nl6cAiBCPSyznhcEOgVqJV6bOCxcSh2Ip3d5eSKpwa3MKwBXdg%3D%3D/playlist/index.m3u8' for reading
2025-12-19T03:57:25.7765914Z [https @ 000002824a31a1c0] Opening 'https://rr3---sn-ci5gup-jwcz.googlevideo.com/videoplayback/id/M37EXujFMRI.1/itag/96/source/yt_live_broadcast/expire/1766138204/ei/_MxEaa2kH4e7z7sPg6OlsAU/ip/2401:4900:64f2:5a81:94a4:a294:1f3e:3361/requiressl/yes/ratebypass/yes/live/1/sgoap/gir%3Dyes%3Bitag%3D140/sgovp/gir%3Dyes%3Bitag%3D137/rqh/1/hls_chunk_host/rr3---sn-ci5gup-jwcz.googlevideo.com/xpc/EgVo2aDSNQ%3D%3D/playlist_duration/30/manifest_duration/30/bui/AYUSA3DcaXdD1I0kNUbRLYS48aLwgj6_51sMTq58TL0QpzcfcNQn5abzYI7Po5nLsWWj4IhIIbcB8xWN/spc/wH4Qq2LhJCNK8LHmTBFe/vprv/1/playlist_type/DVR/cps/439/initcwndbps/678750/met/1766116605,/mh/dS/mm/44/mn/sn-ci5gup-jwcz/ms/lva/mv/m/mvi/3/pl/44/rms/lva,lva/keepalive/yes/fexp/51552689,51565116,51565682,51580968/mt/1766116103/sparams/expire,ei,ip,id,itag,source,requiressl,ratebypass,live,sgoap,sgovp,rqh,xpc,playlist_duration,manifest_duration,bui,spc,vprv,playlist_type/sig/AJfQdSswRQIhANb2TS42mM3gfjTpUergRz20aNaRH89TFbFy-5C42KsZAiBaFdK44w9yHETgvhhAioms_cMx2UUW4JkGMbxGk1gPYA%3D%3D/lsparams/hls_chunk_host,cps,initcwndbps,met,mh,mm,mn,ms,mv,mvi,pl,rms/lsig/APaTxxMwRQIhAOwod-GnKjFEk_pdeTrgk8Svn76Rh7qAUtAhi336nl6cAiBCPSyznhcEOgVqJV6bOCxcSh2Ip3d5eSKpwa3MKwBXdg%3D%3D/playlist/index.m3u8/sq/47/goap/lmt%3D1/govp/lmt%3D1/dur/5.000/file/seg.ts' for reading
2025-12-19T03:57:26.5459247Z frame=    8 fps=0.2 q=5.0 size=N/A time=00:00:40.00 bitrate=N/A speed=1.09x elapsed=0:00:36.63    
2025-12-19T03:57:27.0621039Z frame=    9 fps=0.2 q=5.0 size=N/A time=00:00:45.00 bitrate=N/A speed=1.21x elapsed=0:00:37.14    
2025-12-19T03:57:30.8595612Z frame=    9 fps=0.2 q=5.0 size=N/A time=00:00:45.00 bitrate=N/A speed=1.19x elapsed=0:00:37.66    
2025-12-19T03:57:30.8611404Z [https @ 00000282500865c0] Opening 'https://manifest.googlevideo.com/api/manifest/hls_playlist/expire/1766138204/ei/_MxEaa2kH4e7z7sPg6OlsAU/ip/2401:4900:64f2:5a81:94a4:a294:1f3e:3361/id/M37EXujFMRI.1/itag/96/source/yt_live_broadcast/requiressl/yes/ratebypass/yes/live/1/sgoap/gir%3Dyes%3Bitag%3D140/sgovp/gir%3Dyes%3Bitag%3D137/rqh/1/hls_chunk_host/rr3---sn-ci5gup-jwcz.googlevideo.com/xpc/EgVo2aDSNQ%3D%3D/playlist_duration/30/manifest_duration/30/bui/AYUSA3DcaXdD1I0kNUbRLYS48aLwgj6_51sMTq58TL0QpzcfcNQn5abzYI7Po5nLsWWj4IhIIbcB8xWN/spc/wH4Qq2LhJCNK8LHmTBFe/vprv/1/playlist_type/DVR/cps/439/initcwndbps/678750/met/1766116605,/mh/dS/mm/44/mn/sn-ci5gup-jwcz/ms/lva/mv/m/mvi/3/pl/44/rms/lva,lva/dover/11/pacing/0/keepalive/yes/fexp/51552689,51565116,51565682,51580968/mt/1766116103/sparams/expire,ei,ip,id,itag,source,requiressl,ratebypass,live,sgoap,sgovp,rqh,xpc,playlist_duration,manifest_duration,bui,spc,vprv,playlist_type/sig/AJfQdSswRQIhANb2TS42mM3gfjTpUergRz20aNaRH89TFbFy-5C42KsZAiBaFdK44w9yHETgvhhAioms_cMx2UUW4JkGMbxGk1gPYA%3D%3D/lsparams/hls_chunk_host,cps,initcwndbps,met,mh,mm,mn,ms,mv,mvi,pl,rms/lsig/APaTxxMwRQIhAOwod-GnKjFEk_pdeTrgk8Svn76Rh7qAUtAhi336nl6cAiBCPSyznhcEOgVqJV6bOCxcSh2Ip3d5eSKpwa3MKwBXdg%3D%3D/playlist/index.m3u8' for reading
2025-12-19T03:57:31.1232356Z [https @ 000002824a31a1c0] Opening 'https://rr3---sn-ci5gup-jwcz.googlevideo.com/videoplayback/id/M37EXujFMRI.1/itag/96/source/yt_live_broadcast/expire/1766138204/ei/_MxEaa2kH4e7z7sPg6OlsAU/ip/2401:4900:64f2:5a81:94a4:a294:1f3e:3361/requiressl/yes/ratebypass/yes/live/1/sgoap/gir%3Dyes%3Bitag%3D140/sgovp/gir%3Dyes%3Bitag%3D137/rqh/1/hls_chunk_host/rr3---sn-ci5gup-jwcz.googlevideo.com/xpc/EgVo2aDSNQ%3D%3D/playlist_duration/30/manifest_duration/30/bui/AYUSA3DcaXdD1I0kNUbRLYS48aLwgj6_51sMTq58TL0QpzcfcNQn5abzYI7Po5nLsWWj4IhIIbcB8xWN/spc/wH4Qq2LhJCNK8LHmTBFe/vprv/1/playlist_type/DVR/cps/439/initcwndbps/678750/met/1766116605,/mh/dS/mm/44/mn/sn-ci5gup-jwcz/ms/lva/mv/m/mvi/3/pl/44/rms/lva,lva/keepalive/yes/fexp/51552689,51565116,51565682,51580968/mt/1766116103/sparams/expire,ei,ip,id,itag,source,requiressl,ratebypass,live,sgoap,sgovp,rqh,xpc,playlist_duration,manifest_duration,bui,spc,vprv,playlist_type/sig/AJfQdSswRQIhANb2TS42mM3gfjTpUergRz20aNaRH89TFbFy-5C42KsZAiBaFdK44w9yHETgvhhAioms_cMx2UUW4JkGMbxGk1gPYA%3D%3D/lsparams/hls_chunk_host,cps,initcwndbps,met,mh,mm,mn,ms,mv,mvi,pl,rms/lsig/APaTxxMwRQIhAOwod-GnKjFEk_pdeTrgk8Svn76Rh7qAUtAhi336nl6cAiBCPSyznhcEOgVqJV6bOCxcSh2Ip3d5eSKpwa3MKwBXdg%3D%3D/playlist/index.m3u8/sq/48/goap/lmt%3D1/govp/lmt%3D1/dur/5.000/file/seg.ts' for reading
2025-12-19T03:57:31.3616790Z [out#0/image2 @ 000002824a7ad040] video:182KiB audio:0KiB subtitle:0KiB other streams:0KiB global headers:0KiB muxing overhead: unknown
2025-12-19T03:57:31.3618762Z frame=   10 fps=0.2 q=5.0 Lsize=N/A time=00:00:50.00 bitrate=N/A speed=1.19x elapsed=0:00:41.96    
2025-12-19T03:57:31.3900826Z Exiting normally, received signal 2.
2025-12-19T03:57:31.4560140Z ##[error]The operation was canceled.
